<svg xmlns="http://www.w3.org/2000/svg" viewBox="0 0 3297.42 2450.36"><defs><style>.cls-1,.cls-2{font-size:62px;font-family:ProximaNova-Bold, Proxima Nova;font-weight:700;letter-spacing:0.2em;}.cls-1{fill:#3a0ca3;}.cls-2{fill:#f72585;}</style></defs><g id="Layer_2" data-name="Layer 2"><g id="Layer_1-2" data-name="Layer 1"><text class="cls-1" transform="translate(927.35 765.63)">;</text><text class="cls-1" transform="translate(1086.15 909.98)">&lt;/&gt;</text><text class="cls-1" transform="translate(1196.63 1123.87)">&lt;/&gt;</text><text class="cls-1" transform="translate(1497.04 1306.65)">&lt;/&gt;</text><text class="cls-1" transform="translate(1161.14 667.23)">&lt;&gt;</text><text class="cls-1" transform="translate(910.56 593.2)">&lt;&gt;</text><text class="cls-1" transform="translate(1530.82 611.13)">&lt;&gt;</text><text class="cls-1" transform="translate(1456.62 812.01)">&lt;&gt;</text><text class="cls-1" transform="translate(1553.81 1048.75)">&lt;&gt;</text><text class="cls-1" transform="translate(1893.91 667.23)">&lt;&gt;</text><text class="cls-1" transform="translate(2152.67 572.68)">&lt;&gt;</text><text class="cls-1" transform="translate(2114.72 790.73)">&lt;&gt;</text><text class="cls-1" transform="translate(1088.47 1714.67)">;</text><text class="cls-1" transform="translate(1242.46 1836.62)">&lt;/&gt;</text><text class="cls-1" transform="translate(1341.52 1589.24)">&lt;&gt;</text><text class="cls-1" transform="translate(1044.44 1542.86)">&lt;&gt;</text><text class="cls-1" transform="translate(612.16 1687.64)">;</text><text class="cls-1" transform="translate(767.15 1864.16)">&lt;/&gt;</text><text class="cls-1" transform="translate(778.36 1633.1)">&lt;&gt;</text><text class="cls-1" transform="matrix(1, 0, 0, -1, 2841.49, 1485.09)">;</text><text class="cls-1" transform="matrix(1, 0, 0, -1, 2982.49, 1343.54)">&lt;/&gt;</text><text class="cls-1" transform="matrix(1, 0, 0, -1, 3075.27, 1583.48)">&lt;&gt;</text><text class="cls-1" transform="matrix(1, 0, 0, -1, 2824.69, 1657.52)">&lt;&gt;</text><text class="cls-1" transform="matrix(1, 0, 0, -1, 2545.65, 1349.38)">&lt;/&gt;</text><text class="cls-1" transform="matrix(1, 0, 0, -1, 2638.44, 1589.32)">&lt;&gt;</text><text class="cls-1" transform="matrix(1, 0, 0, -1, 392.45, 677.85)">;</text><text class="cls-1" transform="matrix(1, 0, 0, -1, 533.45, 536.3)">&lt;/&gt;</text><text class="cls-1" transform="matrix(1, 0, 0, -1, 626.24, 776.24)">&lt;&gt;</text><text class="cls-1" transform="matrix(1, 0, 0, -1, 440.99, 883.83)">&lt;&gt;</text><text class="cls-1" transform="matrix(1, 0, 0, -1, 96.61, 542.14)">&lt;/&gt;</text><text class="cls-1" transform="matrix(1, 0, 0, -1, 189.4, 782.08)">&lt;&gt;</text><text class="cls-1" transform="translate(595.37 1515.2)">&lt;&gt;</text><text class="cls-1" transform="translate(1728.98 1495.63)">&lt;&gt;</text><text class="cls-1" transform="translate(2031.7 1581.46)">&lt;&gt;</text><text class="cls-1" transform="translate(1969.02 1793.81)">&lt;&gt;</text><text class="cls-1" transform="translate(2340.27 1521.04)">&lt;&gt;</text><text class="cls-1" transform="translate(2359.68 1761.05)">&lt;&gt;</text><text class="cls-1" transform="translate(2095.01 1349.21)">&lt;&gt;</text><text class="cls-1" transform="translate(787.92 1010)">&lt;&gt;</text><text class="cls-1" transform="translate(925.03 1253.49)">&lt;&gt;</text><text class="cls-1" transform="translate(792.72 1391.1)">&lt;&gt;</text><text class="cls-1" transform="translate(1225.01 1349.21)">&lt;&gt;</text><text class="cls-1" transform="translate(2474.9 606.68)">;</text><text class="cls-1" transform="translate(2615.89 748.23)">&lt;/&gt;</text><text class="cls-1" transform="translate(2744.18 964.92)">&lt;/&gt;</text><text class="cls-1" transform="translate(2729.55 469.92)">&lt;&gt;</text><text class="cls-1" transform="translate(2579.34 325.47)">&lt;&gt;</text><text class="cls-1" transform="translate(624.78 387.87)">;</text><text class="cls-1" transform="translate(858.56 289.47)">&lt;&gt;</text><text class="cls-1" transform="translate(607.99 215.44)">&lt;&gt;</text><text class="cls-1" transform="translate(1228.25 233.37)">&lt;&gt;</text><text class="cls-1" transform="translate(1154.05 434.25)">&lt;&gt;</text><text class="cls-1" transform="translate(1591.33 289.47)">&lt;&gt;</text><text class="cls-1" transform="translate(1850.1 194.92)">&lt;&gt;</text><text class="cls-1" transform="translate(1812.15 412.97)">&lt;&gt;</text><text class="cls-1" transform="matrix(1, 0, 0, -1, 230.88, 158.54)">&lt;/&gt;</text><text class="cls-1" transform="matrix(1, 0, 0, -1, 323.67, 398.48)">&lt;&gt;</text><text class="cls-1" transform="translate(2172.33 228.92)">;</text><text class="cls-1" transform="translate(2322.88 385.46)">&lt;/&gt;</text><text class="cls-1" transform="translate(2406.11 130.53)">&lt;&gt;</text><text class="cls-1" transform="translate(2155.53 56.49)">&lt;&gt;</text><text class="cls-1" transform="translate(1054.55 2278.81)">;</text><text class="cls-1" transform="translate(1288.33 2180.42)">&lt;&gt;</text><text class="cls-1" transform="translate(1593.65 1901.05)">&lt;&gt;</text><text class="cls-1" transform="translate(1037.76 2106.38)">&lt;&gt;</text><text class="cls-1" transform="translate(1658.02 2124.32)">&lt;&gt;</text><text class="cls-1" transform="translate(1583.82 2325.19)">&lt;&gt;</text><text class="cls-1" transform="translate(2021.1 2180.42)">&lt;&gt;</text><text class="cls-1" transform="translate(2279.87 2085.87)">&lt;&gt;</text><text class="cls-1" transform="translate(2241.92 2303.91)">&lt;&gt;</text><text class="cls-1" transform="matrix(1, 0, 0, -1, 688.85, 2129.86)">&lt;/&gt;</text><text class="cls-1" transform="matrix(1, 0, 0, -1, 755.75, 2353.57)">&lt;&gt;</text><text class="cls-1" transform="matrix(1, 0, 0, -1, 350.62, 1718.25)">&lt;/&gt;</text><text class="cls-1" transform="matrix(1, 0, 0, -1, 501.05, 1969.55)">&lt;&gt;</text><text class="cls-1" transform="translate(2602.1 2119.86)">;</text><text class="cls-1" transform="translate(2743.09 2261.41)">&lt;/&gt;</text><text class="cls-1" transform="translate(2835.88 2021.47)">&lt;&gt;</text><text class="cls-1" transform="translate(2585.3 1947.43)">&lt;&gt;</text><text class="cls-1" transform="translate(2357.36 881.44)">&lt;&gt;</text><text class="cls-1" transform="translate(2532.14 1068.93)">&lt;&gt;</text><text class="cls-1" transform="translate(2302.15 1183.07)">&lt;&gt;</text><text class="cls-1" transform="translate(2772.56 1190.27)">&lt;&gt;</text><text class="cls-1" transform="translate(229.76 1152.17)">&lt;/&gt;</text><text class="cls-1" transform="translate(562.84 1207.11)">&lt;/&gt;</text><text class="cls-1" transform="translate(98.93 1581.46)">&lt;&gt;</text><text class="cls-1" transform="translate(362.91 1404.32)">&lt;&gt;</text><text class="cls-2" transform="translate(942.88 760.82)">;</text><text class="cls-1" transform="translate(1840.79 1240.15)">;</text><text class="cls-2" transform="translate(1856.31 1235.33)">;</text><text class="cls-2" transform="translate(1101.68 905.17)">&lt;/&gt;</text><text class="cls-2" transform="translate(1212.16 1119.06)">&lt;/&gt;</text><text class="cls-2" transform="translate(1512.56 1301.83)">&lt;/&gt;</text><text class="cls-1" transform="translate(1794.31 864.98)">&lt;/&gt;</text><text class="cls-2" transform="translate(1809.84 860.17)">&lt;/&gt;</text><text class="cls-1" transform="translate(1640.63 1686.7)">&lt;/&gt;</text><text class="cls-2" transform="translate(1656.16 1681.88)">&lt;/&gt;</text><text class="cls-2" transform="translate(1176.66 662.42)">&lt;&gt;</text><text class="cls-2" transform="translate(926.08 588.38)">&lt;&gt;</text><text class="cls-2" transform="translate(1546.35 606.32)">&lt;&gt;</text><text class="cls-2" transform="translate(1472.15 807.2)">&lt;&gt;</text><text class="cls-2" transform="translate(1569.33 1043.94)">&lt;&gt;</text><text class="cls-2" transform="translate(1909.43 662.42)">&lt;&gt;</text><text class="cls-2" transform="translate(2168.2 567.87)">&lt;&gt;</text><text class="cls-2" transform="translate(2130.25 785.91)">&lt;&gt;</text><text class="cls-2" transform="translate(1104 1709.86)">;</text><text class="cls-1" transform="translate(2104.57 1042.79)">;</text><text class="cls-2" transform="translate(2120.1 1037.98)">;</text><text class="cls-2" transform="translate(1257.99 1831.81)">&lt;/&gt;</text><text class="cls-2" transform="translate(1357.04 1584.43)">&lt;&gt;</text><text class="cls-2" transform="translate(1059.97 1538.05)">&lt;&gt;</text><text class="cls-2" transform="translate(627.69 1682.82)">;</text><text class="cls-2" transform="translate(782.68 1859.35)">&lt;/&gt;</text><text class="cls-2" transform="translate(793.88 1628.29)">&lt;&gt;</text><text class="cls-2" transform="matrix(1, 0, 0, -1, 2857.02, 1480.27)">;</text><text class="cls-2" transform="matrix(1, 0, 0, -1, 2998.01, 1338.73)">&lt;/&gt;</text><text class="cls-2" transform="matrix(1, 0, 0, -1, 3090.8, 1578.67)">&lt;&gt;</text><text class="cls-2" transform="matrix(1, 0, 0, -1, 2840.22, 1652.71)">&lt;&gt;</text><text class="cls-2" transform="matrix(1, 0, 0, -1, 2561.18, 1344.57)">&lt;/&gt;</text><text class="cls-2" transform="matrix(1, 0, 0, -1, 2653.96, 1584.51)">&lt;&gt;</text><text class="cls-2" transform="matrix(1, 0, 0, -1, 407.98, 673.03)">;</text><text class="cls-2" transform="matrix(1, 0, 0, -1, 548.98, 531.49)">&lt;/&gt;</text><text class="cls-2" transform="matrix(1, 0, 0, -1, 641.76, 771.43)">&lt;&gt;</text><text class="cls-2" transform="matrix(1, 0, 0, -1, 456.52, 879.02)">&lt;&gt;</text><text class="cls-2" transform="matrix(1, 0, 0, -1, 112.14, 537.33)">&lt;/&gt;</text><text class="cls-2" transform="matrix(1, 0, 0, -1, 204.93, 777.27)">&lt;&gt;</text><text class="cls-2" transform="translate(610.89 1510.39)">&lt;&gt;</text><text class="cls-2" transform="translate(1744.5 1490.82)">&lt;&gt;</text><text class="cls-2" transform="translate(2047.23 1576.65)">&lt;&gt;</text><text class="cls-2" transform="translate(1984.55 1789)">&lt;&gt;</text><text class="cls-2" transform="translate(2355.79 1516.23)">&lt;&gt;</text><text class="cls-2" transform="translate(2375.21 1756.24)">&lt;&gt;</text><text class="cls-2" transform="translate(2110.54 1344.4)">&lt;&gt;</text><text class="cls-2" transform="translate(803.44 1005.19)">&lt;&gt;</text><text class="cls-2" transform="translate(940.56 1248.68)">&lt;&gt;</text><text class="cls-2" transform="translate(808.25 1386.29)">&lt;&gt;</text><text class="cls-2" transform="translate(1240.54 1344.4)">&lt;&gt;</text><text class="cls-2" transform="translate(2490.43 601.87)">;</text><text class="cls-2" transform="translate(2631.42 743.42)">&lt;/&gt;</text><text class="cls-2" transform="translate(2759.7 960.11)">&lt;/&gt;</text><text class="cls-2" transform="translate(2745.08 465.11)">&lt;&gt;</text><text class="cls-2" transform="translate(2594.86 320.66)">&lt;&gt;</text><text class="cls-1" transform="translate(2960.81 715.59)">;</text><text class="cls-1" transform="translate(3101.81 857.13)">&lt;/&gt;</text><text class="cls-1" transform="translate(3194.6 617.2)">&lt;&gt;</text><text class="cls-1" transform="translate(2944.02 543.16)">&lt;&gt;</text><text class="cls-2" transform="translate(2976.34 710.78)">;</text><text class="cls-2" transform="translate(3117.34 852.32)">&lt;/&gt;</text><text class="cls-2" transform="translate(3210.12 612.38)">&lt;&gt;</text><text class="cls-2" transform="translate(2959.54 538.34)">&lt;&gt;</text><text class="cls-2" transform="translate(640.31 383.06)">;</text><text class="cls-2" transform="translate(874.09 284.66)">&lt;&gt;</text><text class="cls-2" transform="translate(623.51 210.62)">&lt;&gt;</text><text class="cls-2" transform="translate(1243.77 228.56)">&lt;&gt;</text><text class="cls-2" transform="translate(1169.58 429.44)">&lt;&gt;</text><text class="cls-2" transform="translate(1606.86 284.66)">&lt;&gt;</text><text class="cls-2" transform="translate(1865.63 190.11)">&lt;&gt;</text><text class="cls-2" transform="translate(1827.68 408.15)">&lt;&gt;</text><text class="cls-2" transform="matrix(1, 0, 0, -1, 246.4, 153.73)">&lt;/&gt;</text><text class="cls-2" transform="matrix(1, 0, 0, -1, 339.19, 393.67)">&lt;&gt;</text><text class="cls-2" transform="translate(2187.85 224.11)">;</text><text class="cls-2" transform="translate(2338.41 380.65)">&lt;/&gt;</text><text class="cls-2" transform="translate(2421.64 125.72)">&lt;&gt;</text><text class="cls-2" transform="translate(2171.06 51.68)">&lt;&gt;</text><text class="cls-2" transform="translate(1070.08 2274)">;</text><text class="cls-2" transform="translate(1303.86 2175.6)">&lt;&gt;</text><text class="cls-2" transform="translate(1609.18 1896.24)">&lt;&gt;</text><text class="cls-2" transform="translate(1053.28 2101.57)">&lt;&gt;</text><text class="cls-1" transform="translate(0 2094.13)">;</text><text class="cls-1" transform="translate(233.78 1995.74)">&lt;&gt;</text><text class="cls-1" transform="translate(10.68 1819.16)">&lt;&gt;</text><text class="cls-2" transform="translate(15.53 2089.32)">;</text><text class="cls-2" transform="translate(249.31 1990.93)">&lt;&gt;</text><text class="cls-2" transform="translate(26.2 1814.35)">&lt;&gt;</text><text class="cls-2" transform="translate(1673.54 2119.51)">&lt;&gt;</text><text class="cls-2" transform="translate(1599.35 2320.38)">&lt;&gt;</text><text class="cls-2" transform="translate(2036.63 2175.6)">&lt;&gt;</text><text class="cls-2" transform="translate(2295.39 2081.05)">&lt;&gt;</text><text class="cls-2" transform="translate(2257.45 2299.1)">&lt;&gt;</text><text class="cls-2" transform="matrix(1, 0, 0, -1, 704.38, 2125.05)">&lt;/&gt;</text><text class="cls-2" transform="matrix(1, 0, 0, -1, 771.28, 2348.76)">&lt;&gt;</text><text class="cls-1" transform="matrix(1, 0, 0, -1, 351.77, 2174.97)">&lt;/&gt;</text><text class="cls-1" transform="matrix(1, 0, 0, -1, 418.67, 2398.68)">&lt;&gt;</text><text class="cls-2" transform="matrix(1, 0, 0, -1, 367.29, 2170.16)">&lt;/&gt;</text><text class="cls-2" transform="matrix(1, 0, 0, -1, 434.2, 2393.87)">&lt;&gt;</text><text class="cls-2" transform="matrix(1, 0, 0, -1, 366.14, 1713.44)">&lt;/&gt;</text><text class="cls-2" transform="matrix(1, 0, 0, -1, 516.58, 1964.74)">&lt;&gt;</text><text class="cls-2" transform="translate(2617.63 2115.05)">;</text><text class="cls-2" transform="translate(2758.62 2256.6)">&lt;/&gt;</text><text class="cls-2" transform="translate(2851.41 2016.66)">&lt;&gt;</text><text class="cls-2" transform="translate(2600.83 1942.62)">&lt;&gt;</text><text class="cls-2" transform="translate(2372.89 876.63)">&lt;&gt;</text><text class="cls-2" transform="translate(2547.67 1064.12)">&lt;&gt;</text><text class="cls-2" transform="translate(2317.68 1178.26)">&lt;&gt;</text><text class="cls-2" transform="translate(2788.08 1185.45)">&lt;&gt;</text><text class="cls-1" transform="translate(3080.62 1121.46)">&lt;&gt;</text><text class="cls-2" transform="translate(3096.14 1116.65)">&lt;&gt;</text><text class="cls-2" transform="translate(245.29 1147.36)">&lt;/&gt;</text><text class="cls-2" transform="translate(578.37 1202.3)">&lt;/&gt;</text><text class="cls-2" transform="translate(114.46 1576.65)">&lt;&gt;</text><text class="cls-2" transform="translate(378.43 1399.51)">&lt;&gt;</text></g></g></svg>