<svg xmlns="http://www.w3.org/2000/svg" xmlns:xlink="http://www.w3.org/1999/xlink" viewBox="0 0 2124.05 887.88"><defs><style>.cls-1{fill:url(#linear-gradient);}.cls-2{fill:url(#linear-gradient-2);}</style><linearGradient id="linear-gradient" x1="-29.21" y1="519.5" x2="1579.32" y2="519.5" gradientTransform="matrix(0.99, 0.14, -0.11, 0.76, 67.37, -131.47)" gradientUnits="userSpaceOnUse"><stop offset="0" stop-color="#e42585"/><stop offset="0.12" stop-color="#de2486"/><stop offset="0.28" stop-color="#cc2289"/><stop offset="0.47" stop-color="#b01d8e"/><stop offset="0.68" stop-color="#881795"/><stop offset="0.9" stop-color="#55109e"/><stop offset="1" stop-color="#3a0ca3"/></linearGradient><linearGradient id="linear-gradient-2" x1="1694.92" y1="691.19" x2="2125.37" y2="691.19" gradientTransform="translate(-26.08 60.57) rotate(-2.15)" xlink:href="#linear-gradient"/></defs><g id="Layer_2" data-name="Layer 2"><g id="Layer_1-2" data-name="Layer 1"><path class="cls-1" d="M68.31,24.29c70.31-37.35,149-27.65,212.26,2.26C376.64,72,419.7,122.68,529,204.72c47.66,35.75,96,73.35,179.59,89.73,198.14,38.82,329.12-175.37,639.61-175.21,119.67.06,248.63,25.35,261.52,93C1638,360.36,1240.84,253.71,1165,428.57c-32.61,75.18,59.28,120.81,35.3,215.21-15.16,59.64-70.77,116.27-188.09,98-76.84-12-137-60.14-243.26-197.32-107.46-138.75-247.14-175.68-303-199.58-219.87-94-311.95,14.28-412.41-73.93C-22.49,204.22-17.5,69.89,68.31,24.29Z"/><path class="cls-2" d="M1712.17,834.52c-7-47.3,50.26-48.72,46-97-6.84-77.58-125.5-166.57-35.92-232.36,77.18-56.68,211.38-17.2,263.53,8.68,98,48.63,135.39,82.76,138.17,164.77,2.77,81.68-52,143.38-129.38,182.31C1890.15,913.47,1719,880.75,1712.17,834.52Z"/></g></g></svg>